<svg t="1766565006414" class="icon" viewBox="0 0 1024 1024" version="1.1" xmlns="http://www.w3.org/2000/svg" p-id="2583" width="200" height="200"><path d="M511.946 341.312c0-113.094 91.688-204.782 204.812-204.782 42.124 0 81.312 12.718 113.876 34.562C771.632 68.812 661.196 0 534.696 0 346.18 0 193.368 152.812 193.368 341.312c0 174.156 130.406 317.844 298.906 338.718v322.624c0 11.782 9.546 21.344 21.36 21.344 11.75 0 21.312-9.562 21.312-21.344v-320c126.438-0.094 236.75-68.906 295.688-171.094-32.562 21.812-71.75 34.562-113.876 34.562-113.126 0.002-204.812-91.684-204.812-204.81z" fill="#F6BB42" p-id="2584"></path><path d="M662.946 853.312H364.274c-11.782 0-21.344 9.562-21.344 21.344S352.492 896 364.274 896h298.672c11.75 0 21.312-9.562 21.312-21.344s-9.562-21.344-21.312-21.344z" fill="#FFCE54" p-id="2585"></path></svg>